# xmcd CD database file
#
# Track frame offsets:
#	150
#	6720
#	34645
#	59775
#	86222
#	106062
#	131200
#	163047
#	188907
#
# Disc length: 3177 seconds
#
# Revision: 0
# Processed by: cddbd v1.5.2PL0 Copyright (c) Steve Scherf et al.
# Submitted via: CDex 1.70beta2
#
DISCID=800c6709
DTITLE=Le POM - Le POM
DYEAR=1997
DGENRE=Jazz
TTITLE0=Bonjour
TTITLE1=Jazz naturel
TTITLE2=Menships freetings
TTITLE3=Et pourquoi pas
TTITLE4=Racine pays
TTITLE5=Ten years after
TTITLE6=On tourne en rond
TTITLE7=Carte postale
TTITLE8=En vrac
EXTD=YEAR: 1997
EXTT0=
EXTT1=
EXTT2=
EXTT3=
EXTT4=
EXTT5=
EXTT6=
EXTT7=
EXTT8=
PLAYORDER=
